<?xml version="1.0" encoding="UTF-8"?>
<!DOCTYPE svg PUBLIC "-//W3C//DTD SVG 1.1//EN" "http://www.w3.org/Graphics/SVG/1.1/DTD/svg11.dtd">
<svg xmlns="http://www.w3.org/2000/svg" version="1.1" width="500px" height="500px" style="shape-rendering:geometricPrecision; text-rendering:geometricPrecision; image-rendering:optimizeQuality; fill-rule:evenodd; clip-rule:evenodd" xmlns:xlink="http://www.w3.org/1999/xlink">
<g><path style="opacity:1" fill="#1175fd" d="M 293.5,63.5 C 300.612,67.1907 308.279,69.5241 316.5,70.5C 377.495,94.6644 416.995,138.331 435,201.5C 439.632,219.887 441.465,238.554 440.5,257.5C 439.883,257.611 439.383,257.944 439,258.5C 438.926,266.307 438.093,273.973 436.5,281.5C 392.259,238.093 348.592,194.259 305.5,150C 303.677,149.003 302.01,147.836 300.5,146.5C 299.046,144.563 297.379,142.897 295.5,141.5C 289.25,134.748 282.25,128.915 274.5,124C 262.644,120.716 250.644,119.882 238.5,121.5C 231.514,120.257 224.514,119.757 217.5,120C 219.087,120.862 220.754,121.529 222.5,122C 221.071,124.438 219.237,125.604 217,125.5C 215.906,127.078 215.072,128.745 214.5,130.5C 210.87,134.631 207.037,138.631 203,142.5C 202,144.5 201,146.5 200,148.5C 198.935,156.075 197.435,163.575 195.5,171C 198.911,179.54 200.244,188.374 199.5,197.5C 197.53,196.557 196.03,197.224 195,199.5C 194.901,208.679 196.234,217.679 199,226.5C 200.509,228.919 202.675,229.919 205.5,229.5C 205.931,236.088 207.431,242.422 210,248.5C 214.167,253.333 218.333,258.167 222.5,263C 221.93,269.208 220.93,275.375 219.5,281.5C 202.466,287.001 186.466,294.501 171.5,304C 159.304,317.949 154.47,334.116 157,352.5C 161.421,361.408 168.587,366.741 178.5,368.5C 178.53,369.497 178.03,370.164 177,370.5C 175.003,368.621 172.836,368.288 170.5,369.5C 184.182,384.015 198.348,398.015 213,411.5C 222.09,421.083 230.923,430.75 239.5,440.5C 161.086,433.806 105.42,394.806 72.5,323.5C 73.4731,321.052 73.8064,318.385 73.5,315.5C 72.5,315.5 71.5,315.5 70.5,315.5C 70.3444,312.934 70.6777,310.434 71.5,308C 71.3333,307.5 71.1667,307 71,306.5C 70.5814,307.672 69.9147,308.672 69,309.5C 64.1986,293.827 61.1986,277.827 60,261.5C 59.6174,260.944 59.1174,260.611 58.5,260.5C 55.8492,209.367 70.8492,164.367 103.5,125.5C 105.489,124.519 107.489,123.519 109.5,122.5C 111.944,123.222 114.278,124.222 116.5,125.5C 117.452,124.467 117.452,123.3 116.5,122C 119.188,119.246 121.521,116.246 123.5,113C 123.265,112.127 122.931,111.293 122.5,110.5C 124.197,109.636 125.363,108.303 126,106.5C 128.468,105.896 130.468,104.562 132,102.5C 132.333,102.833 132.667,103.167 133,103.5C 133.456,102.256 132.956,101.423 131.5,101C 134.005,99.2467 136.671,97.7467 139.5,96.5C 140.521,97.0016 140.688,97.6683 140,98.5C 138.188,101.892 136.022,105.059 133.5,108C 134.577,109.543 135.911,109.543 137.5,108C 140.216,105.916 142.216,103.25 143.5,100C 140.85,97.762 141.183,95.9287 144.5,94.5C 143.833,93.8333 143.167,93.1667 142.5,92.5C 144.353,91.2404 146.186,91.2404 148,92.5C 148.724,90.0411 150.057,89.0411 152,89.5C 153.205,88.9288 154.372,88.2621 155.5,87.5C 155.167,86.8333 154.833,86.1667 154.5,85.5C 156.369,84.3764 158.369,83.5431 160.5,83C 162.141,81.871 163.141,80.371 163.5,78.5C 172.312,73.6703 181.646,70.0037 191.5,67.5C 194.002,67.2505 196.502,66.9172 199,66.5C 201.848,69.0806 204.681,68.9139 207.5,66C 204.456,65.6411 204.122,64.9745 206.5,64C 211.825,62.4318 217.158,62.2651 222.5,63.5C 223.893,62.1369 225.559,61.3036 227.5,61C 236.148,59.9057 244.815,59.5724 253.5,60C 255.797,61.1597 255.464,62.1597 252.5,63C 254.18,63.0343 255.68,63.201 257,63.5C 257.483,62.552 257.649,61.552 257.5,60.5C 269.646,60.2567 281.646,61.2567 293.5,63.5 Z"/></g>
<g><path style="opacity:1" fill="#2578ec" d="M 293.5,63.5 C 281.646,61.2567 269.646,60.2567 257.5,60.5C 257.649,61.552 257.483,62.552 257,63.5C 255.68,63.201 254.18,63.0343 252.5,63C 255.464,62.1597 255.797,61.1597 253.5,60C 244.815,59.5724 236.148,59.9057 227.5,61C 225.559,61.3036 223.893,62.1369 222.5,63.5C 217.158,62.2651 211.825,62.4318 206.5,64C 204.122,64.9745 204.456,65.6411 207.5,66C 204.681,68.9139 201.848,69.0806 199,66.5C 196.502,66.9172 194.002,67.2505 191.5,67.5C 203.998,62.9648 216.998,60.1314 230.5,59C 243.167,58.3333 255.833,58.3333 268.5,59C 277.109,59.7249 285.442,61.2249 293.5,63.5 Z"/></g>
<g><path style="opacity:0.514" fill="#3373d4" d="M 293.5,63.5 C 301.567,64.8585 309.234,67.1918 316.5,70.5C 308.279,69.5241 300.612,67.1907 293.5,63.5 Z"/></g>
<g><path style="opacity:1" fill="#1d76f3" d="M 163.5,78.5 C 163.141,80.371 162.141,81.871 160.5,83C 158.369,83.5431 156.369,84.3764 154.5,85.5C 154.833,86.1667 155.167,86.8333 155.5,87.5C 154.372,88.2621 153.205,88.9288 152,89.5C 150.057,89.0411 148.724,90.0411 148,92.5C 146.186,91.2404 144.353,91.2404 142.5,92.5C 143.167,93.1667 143.833,93.8333 144.5,94.5C 141.183,95.9287 140.85,97.762 143.5,100C 142.216,103.25 140.216,105.916 137.5,108C 135.911,109.543 134.577,109.543 133.5,108C 136.022,105.059 138.188,101.892 140,98.5C 140.688,97.6683 140.521,97.0016 139.5,96.5C 136.671,97.7467 134.005,99.2467 131.5,101C 132.956,101.423 133.456,102.256 133,103.5C 132.667,103.167 132.333,102.833 132,102.5C 130.468,104.562 128.468,105.896 126,106.5C 125.363,108.303 124.197,109.636 122.5,110.5C 122.931,111.293 123.265,112.127 123.5,113C 121.521,116.246 119.188,119.246 116.5,122C 117.452,123.3 117.452,124.467 116.5,125.5C 114.278,124.222 111.944,123.222 109.5,122.5C 107.489,123.519 105.489,124.519 103.5,125.5C 120.197,105.5 140.197,89.8337 163.5,78.5 Z"/></g>
<g><path style="opacity:1" fill="#2374e8" d="M 238.5,121.5 C 229.267,121.354 221.267,124.354 214.5,130.5C 215.072,128.745 215.906,127.078 217,125.5C 219.237,125.604 221.071,124.438 222.5,122C 220.754,121.529 219.087,120.862 217.5,120C 224.514,119.757 231.514,120.257 238.5,121.5 Z"/></g>
<g><path style="opacity:1" fill="#2856c0" d="M 295.5,141.5 C 297.379,142.897 299.046,144.563 300.5,146.5C 301.97,154.557 303.303,162.723 304.5,171C 303.756,175.494 302.422,179.66 300.5,183.5C 300.677,179.148 301.677,174.981 303.5,171C 301.616,164.63 300.449,158.13 300,151.5C 298.76,148.022 297.26,144.689 295.5,141.5 Z"/></g>
<g><path style="opacity:1" fill="#1052e5" d="M 300.5,146.5 C 302.01,147.836 303.677,149.003 305.5,150C 348.592,194.259 392.259,238.093 436.5,281.5C 436.167,285.5 435.833,289.5 435.5,293.5C 434.85,293.804 434.183,294.137 433.5,294.5C 432.438,299.531 431.271,304.531 430,309.5C 429.257,307.355 428.424,307.189 427.5,309C 427.96,310.301 428.294,311.634 428.5,313C 427.725,315.822 427.058,318.656 426.5,321.5C 411.488,360.174 386.155,390.174 350.5,411.5C 346.976,411.929 343.976,413.429 341.5,416C 339.866,416.494 338.199,416.66 336.5,416.5C 336.5,417.5 336.5,418.5 336.5,419.5C 336.5,420.167 336.167,420.5 335.5,420.5C 332.09,420.457 328.757,420.957 325.5,422C 319.558,425.482 313.558,428.648 307.5,431.5C 302.613,432.055 297.78,432.055 293,431.5C 290.102,432.365 287.602,433.865 285.5,436C 282.322,436.66 279.322,437.493 276.5,438.5C 274.031,439.317 271.365,439.817 268.5,440C 258.839,440.5 249.172,440.666 239.5,440.5C 230.923,430.75 222.09,421.083 213,411.5C 198.348,398.015 184.182,384.015 170.5,369.5C 172.836,368.288 175.003,368.621 177,370.5C 178.03,370.164 178.53,369.497 178.5,368.5C 179.167,368.5 179.5,368.833 179.5,369.5C 180.429,370.315 181.429,371.148 182.5,372C 188.01,373.89 193.676,374.723 199.5,374.5C 203.217,376.066 207.217,377.232 211.5,378C 231.739,378.595 251.906,379.429 272,380.5C 273.31,379.103 274.81,378.103 276.5,377.5C 276.5,376.833 276.833,376.5 277.5,376.5C 278.964,377.16 280.631,377.493 282.5,377.5C 291.578,376.911 300.578,375.744 309.5,374C 315.062,372.124 320.395,369.958 325.5,367.5C 338.53,363.102 344.197,354.102 342.5,340.5C 345.167,337.528 345.167,334.361 342.5,331C 343.812,328.356 345.478,326.023 347.5,324C 346.5,322.5 345.5,321 344.5,319.5C 344.12,321.021 343.954,322.687 344,324.5C 343.259,325.641 342.425,325.641 341.5,324.5C 339.778,321.721 338.611,318.721 338,315.5C 337.241,313.937 336.074,312.937 334.5,312.5C 332.757,309.25 330.423,306.416 327.5,304C 318.215,298.502 308.882,293.336 299.5,288.5C 297.565,287.19 295.565,285.857 293.5,284.5C 294.628,283.738 295.795,283.071 297,282.5C 296.516,278.796 294.849,278.462 292,281.5C 291.586,281.043 291.086,280.709 290.5,280.5C 289.032,282.333 287.365,282.666 285.5,281.5C 286.146,276.467 283.812,273.8 278.5,273.5C 278.016,268.241 278.683,263.241 280.5,258.5C 289.258,250.919 293.591,241.252 293.5,229.5C 296.325,229.919 298.491,228.919 300,226.5C 300.901,223.48 301.734,220.48 302.5,217.5C 303.117,217.611 303.617,217.944 304,218.5C 303.806,214.74 304.973,211.574 307.5,209C 307,208.5 306.5,208 306,207.5C 305.84,203.713 305.174,200.046 304,196.5C 302.644,195.62 301.144,195.286 299.5,195.5C 299.5,194.5 299.5,193.5 299.5,192.5C 299.19,189.287 299.523,186.287 300.5,183.5C 302.422,179.66 303.756,175.494 304.5,171C 303.303,162.723 301.97,154.557 300.5,146.5 Z"/></g>
<g><path style="opacity:1" fill="#2654c2" d="M 299.5,192.5 C 299.5,193.5 299.5,194.5 299.5,195.5C 301.144,195.286 302.644,195.62 304,196.5C 305.174,200.046 305.84,203.713 306,207.5C 306.5,208 307,208.5 307.5,209C 304.973,211.574 303.806,214.74 304,218.5C 303.617,217.944 303.117,217.611 302.5,217.5C 304.124,211.595 304.624,205.595 304,199.5C 303.309,196.734 301.809,196.067 299.5,197.5C 298.212,195.701 298.212,194.035 299.5,192.5 Z"/></g>
<g><path style="opacity:1" fill="#2e6ed2" d="M 440.5,257.5 C 440.293,269.835 438.627,281.835 435.5,293.5C 435.833,289.5 436.167,285.5 436.5,281.5C 438.093,273.973 438.926,266.307 439,258.5C 439.383,257.944 439.883,257.611 440.5,257.5 Z"/></g>
<g><path style="opacity:1" fill="#1b52d6" d="M 280.5,258.5 C 278.683,263.241 278.016,268.241 278.5,273.5C 283.812,273.8 286.146,276.467 285.5,281.5C 287.365,282.666 289.032,282.333 290.5,280.5C 291.086,280.709 291.586,281.043 292,281.5C 294.849,278.462 296.516,278.796 297,282.5C 295.795,283.071 294.628,283.738 293.5,284.5C 295.565,285.857 297.565,287.19 299.5,288.5C 292.865,286.188 286.198,283.854 279.5,281.5C 278.143,275.354 277.143,269.188 276.5,263C 277.328,261.008 278.661,259.508 280.5,258.5 Z"/></g>
<g><path style="opacity:1" fill="#2a77e3" d="M 58.5,260.5 C 59.1174,260.611 59.6174,260.944 60,261.5C 61.1986,277.827 64.1986,293.827 69,309.5C 69.9147,308.672 70.5814,307.672 71,306.5C 71.1667,307 71.3333,307.5 71.5,308C 70.6777,310.434 70.3444,312.934 70.5,315.5C 71.5,315.5 72.5,315.5 73.5,315.5C 73.8064,318.385 73.4731,321.052 72.5,323.5C 64.2622,303.313 59.5955,282.313 58.5,260.5 Z"/></g>
<g><path style="opacity:0.908" fill="#2554c4" d="M 435.5,293.5 C 433.716,303.329 430.716,312.662 426.5,321.5C 427.058,318.656 427.725,315.822 428.5,313C 428.294,311.634 427.96,310.301 427.5,309C 428.424,307.189 429.257,307.355 430,309.5C 431.271,304.531 432.438,299.531 433.5,294.5C 434.183,294.137 434.85,293.804 435.5,293.5 Z"/></g>
<g><path style="opacity:1" fill="#1c53d0" d="M 334.5,312.5 C 336.074,312.937 337.241,313.937 338,315.5C 338.611,318.721 339.778,321.721 341.5,324.5C 342.425,325.641 343.259,325.641 344,324.5C 343.954,322.687 344.12,321.021 344.5,319.5C 345.5,321 346.5,322.5 347.5,324C 345.478,326.023 343.812,328.356 342.5,331C 345.167,334.361 345.167,337.528 342.5,340.5C 342.007,330.525 339.34,321.192 334.5,312.5 Z"/></g>
<g><path style="opacity:1" fill="#2552c2" d="M 179.5,369.5 C 186.28,371.177 192.947,372.843 199.5,374.5C 193.676,374.723 188.01,373.89 182.5,372C 181.429,371.148 180.429,370.315 179.5,369.5 Z"/></g>
<g><path style="opacity:1" fill="#2453c5" d="M 325.5,367.5 C 320.395,369.958 315.062,372.124 309.5,374C 300.578,375.744 291.578,376.911 282.5,377.5C 280.631,377.493 278.964,377.16 277.5,376.5C 293.865,375.408 309.865,372.408 325.5,367.5 Z"/></g>
<g><path style="opacity:1" fill="#2153cf" d="M 199.5,374.5 C 225.15,377.647 250.816,378.647 276.5,377.5C 274.81,378.103 273.31,379.103 272,380.5C 251.906,379.429 231.739,378.595 211.5,378C 207.217,377.232 203.217,376.066 199.5,374.5 Z"/></g>
<g><path style="opacity:0.784" fill="#2954bf" d="M 350.5,411.5 C 346.493,415.174 341.827,417.841 336.5,419.5C 336.5,418.5 336.5,417.5 336.5,416.5C 338.199,416.66 339.866,416.494 341.5,416C 343.976,413.429 346.976,411.929 350.5,411.5 Z"/></g>
<g><path style="opacity:1" fill="#2357ca" d="M 335.5,420.5 C 326.688,425.33 317.354,428.996 307.5,431.5C 313.558,428.648 319.558,425.482 325.5,422C 328.757,420.957 332.09,420.457 335.5,420.5 Z"/></g>
<g><path style="opacity:1" fill="#2355d1" d="M 307.5,431.5 C 297.648,435.473 287.315,437.806 276.5,438.5C 279.322,437.493 282.322,436.66 285.5,436C 287.602,433.865 290.102,432.365 293,431.5C 297.78,432.055 302.613,432.055 307.5,431.5 Z"/></g>
</svg>
